<svg width="122.48" height="122.88" xmlns="http://www.w3.org/2000/svg" data-name="Layer 1">

 <title>push-pin-blue</title>
 <g>
  <title>Layer 1</title>
  <path id="svg_1" fill-rule="evenodd" fill="#12372a" d="m121.21,36.53l-35.29,-35.3c-3,-3 -7.77,0.1 -9.2,2.74c-0.24,0.45 0.19,0.86 -0.2,3.92a46.27,46.27 0 0 1 -2.72,11.32l-15.69,15.7c-6.27,6.26 -15.23,3.48 -22.87,-0.32c-1.62,-0.8 -3.69,-2.57 -5.48,-0.78l-6.64,6.64a2.49,2.49 0 0 0 0,3.53l55.78,55.78a2.5,2.5 0 0 0 3.53,0l6.64,-6.64c1.77,-1.77 -0.49,-4.06 -1.41,-6c-3.4,-7 -6.45,-16.41 -0.78,-22.08l16.39,-16.39a84.14,84.14 0 0 1 11.35,-2.57c3.09,-0.49 3.47,-0.11 3.91,-0.4c2.71,-1.74 5.7,-6.15 2.68,-9.17l0,0.02z" class="cls-1"/>
  <polygon id="svg_2" fill="#1a1a1a" fill-rule="evenodd" points="53.48 82.11 40.77 69.4 0 120.96 1.92 122.88 53.48 82.11 53.48 82.11" class="cls-2"/>
 </g>
</svg>